# xmcd CD database file
#
# Track frame offsets:
#	150
#	13301
#	27549
#	42328
#	57162
#	72027
#	87276
#	99973
#	112954
#	126354
#	140173
#	151792
#	166057
#	179074
#	193460
#	207870
#	221720
#
# Disc length: 3157 seconds
#
# Revision: 1
# Processed by: cddbd v1.5.2PL0 Copyright (c) Steve Scherf et al.
# Submitted via: CDex 1.70beta2
#
DISCID=fa0c5311
DTITLE=Lionel Hampton Orchestra - Jazz Classic's 2
DYEAR=1900
DGENRE=Jazz
TTITLE0=Whoa Babe
TTITLE1=Drum Stomp (Crazy Rhythm)
TTITLE2=You Are My Ideal
TTITLE3=Down Home Jump
TTITLE4=Any Time At All
TTITLE5=Fiddle Diddle
TTITLE6=China Stomp
TTITLE7=Baby Won't You Please Come Home
TTITLE8=I Know That You Know
TTITLE9=After You've Gone
TTITLE10=Don't Be That Way
TTITLE11=You Are Driving Me Crazy
TTITLE12=Rhythm, Rhythm
TTITLE13=The Sun Will Shine Tonight
TTITLE14=The Ramble
TTITLE15=You Came To My Rescue
TTITLE16=Vibraphone Blues
EXTD=
EXTT0=
EXTT1=
EXTT2=
EXTT3=
EXTT4=
EXTT5=
EXTT6=
EXTT7=
EXTT8=
EXTT9=
EXTT10=
EXTT11=
EXTT12=
EXTT13=
EXTT14=
EXTT15=
EXTT16=
PLAYORDER=
